<?xml version="1.0" standalone="no"?>
<!DOCTYPE svg PUBLIC "-//W3C//DTD SVG 20010904//EN"
 "http://www.w3.org/TR/2001/REC-SVG-20010904/DTD/svg10.dtd">
<svg version="1.0" xmlns="http://www.w3.org/2000/svg"
 width="448.000000pt" height="448.000000pt" viewBox="0 0 448.000000 448.000000"
 preserveAspectRatio="xMidYMid meet">
<metadata>
Created by potrace 1.11, written by Peter Selinger 2001-2013
</metadata>
<g transform="translate(0.000000,448.000000) scale(0.100000,-0.100000)"
fill="#000000" stroke="none">
<path d="M959 4376 c-2 -2 -25 -7 -51 -10 -100 -14 -245 -71 -353 -141 -132
-85 -255 -224 -325 -365 -18 -36 -36 -72 -40 -81 -16 -31 -49 -165 -57 -229
-5 -36 -8 -632 -8 -1325 1 -1326 1 -1299 47 -1445 88 -280 327 -518 608 -608
146 -47 125 -46 1455 -46 693 0 1287 3 1320 6 204 22 400 120 555 277 131 132
213 278 257 461 17 71 18 153 18 1385 l0 1310 -22 88 c-43 167 -131 323 -252
446 -132 133 -284 215 -496 268 -30 8 -2648 16 -2656 9z m36 -3471 c160 -1
296 1 303 3 9 3 12 96 12 419 0 393 1 417 19 432 18 15 205 190 340 318 l66
62 44 -47 c24 -26 73 -79 110 -118 36 -38 118 -126 181 -194 63 -68 136 -145
162 -173 26 -27 73 -77 104 -111 32 -33 114 -121 183 -195 69 -73 137 -145
150 -160 13 -14 75 -80 136 -146 62 -66 132 -140 155 -165 23 -25 96 -103 163
-174 67 -71 130 -138 140 -150 10 -12 46 -49 79 -84 45 -46 55 -62 42 -63 -11
0 -620 -1 -1354 -1 -1470 -1 -1391 -4 -1490 60 -59 39 -86 65 -122 121 -64
101 -60 -2 -60 1711 0 857 3 1573 7 1590 31 141 145 259 285 295 l45 11 5
-1620 5 -1621 290 0z m2867 3229 c142 -33 260 -158 285 -300 5 -27 8 -751 7
-1609 l-1 -1560 -22 -54 c-40 -99 -40 -99 -101 -33 -29 31 -106 113 -170 182
-65 69 -132 141 -150 160 -18 19 -87 93 -154 165 -66 71 -143 154 -171 183
-27 30 -66 71 -85 91 -108 115 -370 395 -515 550 -38 41 -100 107 -136 146
-36 38 -79 84 -95 101 -16 18 -79 85 -140 150 -61 66 -139 148 -172 184 l-61
65 211 207 c250 244 282 265 423 272 255 14 447 -257 356 -502 -21 -55 -36
-74 -123 -155 -55 -50 -138 -128 -184 -172 l-84 -80 67 -71 c38 -39 116 -122
174 -185 59 -63 122 -130 141 -151 l35 -36 55 51 c31 29 109 101 174 162 157
145 174 163 218 229 100 151 160 349 160 531 0 267 -92 495 -278 693 -99 105
-256 202 -406 250 -242 78 -503 58 -736 -57 -110 -55 -156 -89 -323 -249 -80
-77 -171 -163 -201 -192 -114 -108 -440 -419 -509 -485 l-41 -39 0 786 0 787
1245 -1 c1053 0 1255 -2 1307 -14z"/>
</g>
</svg>
