<svg xmlns="http://www.w3.org/2000/svg" width="77" height="77" viewBox="0 0 77 77">
    <g fill="#946F5C" fill-rule="evenodd">
        <path d="M40.746 41.266c1.882.943 5.147.639 7.091-.977.632-.526 1.203-.575 1.957-.371 1.062.286 2.151.503 3.242.635 8.208.991 16.033-3.314 19.853-10.892 3.494-6.931 2.125-15.754-3.344-21.544C61.971.097 49.523-.167 41.438 7.52c-7.712 7.333-7.813 19.454-.229 27.342 1.838 1.912 1.82 4.03-.047 5.935-.143.145-.271.304-.416.468m16.042 29.74c-1.642-1.292-3.297-2.37-4.675-3.73-1.961-1.936-2.553-4.212-1.288-6.911 2.244-4.786 3.043-9.851 2.379-15.11-.331-2.617-.37-2.633-2.966-3.184-.508-.108-1.191-.174-1.584.074-3.378 2.13-6.819 1.961-10.308.393-.362-.163-.835-.64-.817-.946.022-.383.468-.77.79-1.097.217-.221.552-.321.81-.508 1.877-1.359 1.967-2.378.385-4.078-2.758-2.964-4.638-6.395-5.402-10.387-.142-.739-.493-.98-1.172-1.107-7.254-1.35-14.044-.176-20.044 4.161C4.546 34.612.764 42.93 2.322 53.124c1.527 9.996 7.46 16.831 16.99 20.189 8.116 2.859 15.874 1.62 23.045-3.138.722-.479 1.285-.543 2.029-.045 1.763 1.179 3.685 2.028 5.8 2.35 2.408.366 4.661.039 6.602-1.474m-23.19-48.464C33.106 9.228 44.004-.155 55.378.002 66.487.156 75.68 8.607 76.662 19.481c1.09 12.084-8.968 23.683-21.802 23.243.143 1.27.324 2.534.42 3.804.388 5.121-.553 10.016-2.702 14.658-.85 1.836-.535 3.447.867 4.654 1.546 1.331 3.303 2.446 5.066 3.489 1.491.88 1.635 1.314.337 2.497-2.849 2.595-6.187 3.302-9.838 2.308-1.667-.454-3.255-1.22-4.842-1.927-.549-.245-.928-.292-1.457.04-7.6 4.772-15.736 5.806-24.172 2.859C.713 68.878-5.655 47.546 5.637 32.922c6.82-8.833 16.021-12.175 27.048-10.482.278.043.56.063.913.102"/>
        <path d="M24.104 34.334c0 4.878-.006 9.642.019 14.404 0 .2.282.569.438.572 2.081.038 4.164.026 6.266.026V34.334h-6.723zm8.714 7.497c0 2.673-.021 5.346.012 8.02.012 1.008-.408 1.416-1.403 1.406-2.601-.024-5.203.004-7.804-.01-1.194-.007-1.444-.26-1.446-1.455-.008-5.31-.008-10.62 0-15.93.002-1.247.273-1.512 1.503-1.515 2.566-.007 5.132-.008 7.698.001 1.17.004 1.433.273 1.437 1.464.01 2.673.003 5.346.003 8.02zM27.455 65.34c2.228.012 4.024-1.738 4.052-3.948a4.007 4.007 0 0 0-4.034-4.075c-2.193.01-4.009 1.823-4.017 4.01-.009 2.207 1.779 4 4 4.012m.066-9.93c3.27.01 5.924 2.66 5.924 5.911 0 3.292-2.71 5.999-5.989 5.982-3.217-.016-5.922-2.721-5.938-5.938-.016-3.278 2.694-5.967 6.003-5.956M55.176 25.485c2.706 0 5.413.003 8.119-.002.717-.001 1.454.035 1.433.991-.02.88-.723.924-1.4.924H47.092c-.712 0-1.45-.045-1.44-.998.01-.807.646-.915 1.3-.915 2.741.002 5.483 0 8.224 0M55.176 16.758c2.706 0 5.413.003 8.119-.002.717-.001 1.454.034 1.433.99-.02.88-.723.925-1.4.925H47.092c-.712 0-1.45-.046-1.44-.998.01-.807.646-.915 1.3-.915h8.224"/>
    </g>
</svg>
