<svg xmlns="http://www.w3.org/2000/svg" xmlns:xlink="http://www.w3.org/1999/xlink" width="70" height="70" viewBox="0 0 70 70">
    <defs>
        <path id="prefix__a" d="M0 0L69.735 0 69.735 69.726 0 69.726z"/>
    </defs>
    <g fill="none" fill-rule="evenodd" transform="matrix(-1 0 0 1 70 0)">
        <mask id="prefix__b" fill="#fff">
            <use xlink:href="#prefix__a"/>
        </mask>
        <path fill="#946F5C" d="M8.324 34.685h4.946v-1.42H8.324v1.42zM26.727 6.557h3.904V1.805h-3.904v4.752zM64.43 26.48c.992 0 1.91-.03 2.825.011.555.025.731-.148.726-.715-.026-2.691-.008-5.383-.009-8.075 0-.207-.026-.414-.042-.642h-3.5v9.421zM34.857 67.976l31.586-.001c1.213 0 1.522-.31 1.532-1.498.002-.307 0-.614 0-.92 0-2.066-.091-2.161-2.156-2.162H3.497c-.236 0-.473-.002-.707.021-.634.063-1 .422-1.021 1.057-.026.801-.027 1.605.002 2.407.023.666.406 1.038 1.076 1.08.376.023.755.015 1.132.015h30.878zm-31.428-6.39h62.778v-7.93h-.894c-15.75-.002-31.5-.006-47.251-.005-3.4 0-6.802-.047-10.2.05-2.363.068-4.235 1.945-4.417 4.29-.091 1.172-.016 2.356-.016 3.595zM44.2 51.84h21.776c-.013-.156-.015-.271-.033-.384-.798-5.01-1.607-10.02-2.394-15.032-.605-3.852-1.028-7.714-.927-11.628.076-2.973.023-5.95.012-8.925-.009-2.22-1.421-3.655-3.626-3.656a40239.67 40239.67 0 00-48.096 0c-3.943.002-6.627 2.7-6.646 6.641-.017 3.353-.007 6.706.004 10.059.006 1.65.9 2.537 2.548 2.54 3.424.007 6.847-.007 10.271.009.86.004 1.55-.29 2.145-.9 1.038-1.066 2.104-2.104 3.153-3.159 1.453-1.462 3.199-2.22 5.267-2.218 3.967.001 7.934-.022 11.9.02.71.007 1.475.153 2.118.446 1.846.842 2.53 2.426 2.53 4.377-.004 6.02-.002 12.041-.002 18.062v3.748zM27.777 10.445V8.37c-.862 0-1.702.002-2.542-.002-.259 0-.58.076-.763-.047-.298-.2-.665-.515-.703-.819-.031-.251.344-.583.592-.826.11-.109.35-.088.554-.132V1.88c-.061-.043-.097-.087-.137-.092-.592-.078-1.11-.293-1.036-.993.072-.684.613-.797 1.212-.794 2.432.011 4.865.009 7.297.002.53-.002 1.033.06 1.177.664.141.591-.185.918-.74 1.095-.116.037-.234.281-.236.431-.018 1.322-.024 2.645.005 3.967.003.167.19.416.35.48.462.183.708.483.64.969-.077.53-.453.746-.961.75-.803.007-1.606.016-2.408.002-.355-.006-.524.11-.512.485.017.514.004 1.028.004 1.629h.978c9.398-.002 18.797.008 28.195-.014 2.163-.004 3.864.77 4.961 2.668.267.46.459.995.547 1.519.088.523.312.641.797.628 1.156-.03 2.314-.017 3.47-.007.919.008 1.202.281 1.204 1.173.005 3.542.005 7.085 0 10.627-.002.86-.29 1.15-1.146 1.156-1.344.01-2.688.003-4.137.003 0 .28-.027.53.004.771.457 3.605.891 7.213 1.392 10.812.686 4.929 1.948 9.776 2.153 14.772.09 2.216.077 4.438.083 6.657.002.444.117.725.504.988.773.525 1.112 1.33 1.14 2.248a39.3 39.3 0 01.001 2.48c-.05 1.555-1.205 2.7-2.759 2.765-.212.01-.425.005-.637.005H3.412c-2.374 0-3.407-1.033-3.408-3.404 0-.59-.011-1.18.004-1.77.027-1.003.421-1.81 1.242-2.426.203-.151.367-.481.38-.738.045-.919.01-1.841.02-2.762.042-3.911 2.868-6.738 6.78-6.742 11.052-.01 22.103-.006 33.155-.008h.873v-.878c.002-6.966.006-13.932.005-20.898-.001-2.129-1.052-3.18-3.172-3.182-3.73-.003-7.462.028-11.192-.013-1.865-.02-3.403.605-4.687 1.94-.867.903-1.805 1.739-2.643 2.666-1.11 1.226-2.44 1.767-4.091 1.702-1.624-.064-1.626-.013-1.627 1.618 0 .189.005.378-.002.566-.03.808-.31 1.085-1.138 1.107-.472.013-.948.04-1.416-.006-.631-.06-.862.132-.845.81.047 1.864.017 3.73.014 5.596 0 .235.058.533-.059.692-.202.272-.533.646-.787.63-.304-.02-.622-.374-.856-.649-.109-.127-.043-.41-.043-.622-.002-1.865-.001-3.73-.001-5.596v-.846c-.789 0-1.49.01-2.192-.002-.905-.017-1.188-.303-1.198-1.195-.008-.679-.002-1.358-.002-2.091-1.097-.09-2.039-.42-2.795-1.16-.837-.82-1.225-1.827-1.225-2.993 0-3.495-.044-6.99.005-10.485.057-4.123 2.75-7.234 6.833-8.014.161-.03.322-.069.574-.123V7.434c0-.473-.002-.945 0-1.417.006-.862.293-1.27.887-1.259.585.01.855.408.86 1.29.006 1.205.004 2.41.01 3.614.001.252.024.505.037.783h16.065z" mask="url(#prefix__b)"/>
        <path fill="#946F5C" d="M32.552 20.286v.003h2.119c.047 0 .094 0 .14-.003.803-.053 1.332-.549 1.348-1.26.017-.742-.525-1.299-1.358-1.313a132.67 132.67 0 00-4.379 0c-.8.014-1.334.542-1.352 1.253-.02.737.528 1.285 1.363 1.315.705.026 1.412.005 2.119.005zm.026 1.778c-.707 0-1.414.02-2.12-.004-1.854-.065-3.182-1.387-3.155-3.118.027-1.71 1.35-2.977 3.185-3.007 1.413-.024 2.828-.023 4.242.006 1.87.039 3.202 1.342 3.189 3.076-.014 1.742-1.346 3.01-3.22 3.052-.707.016-1.414.003-2.12.003v-.008z" mask="url(#prefix__b)"/>
    </g>
</svg>
