<?xml version="1.0" encoding="utf-8"?>
<!-- Svg Vector Icons : http://www.onlinewebfonts.com/icon -->
<!DOCTYPE svg PUBLIC "-//W3C//DTD SVG 1.1//EN" "http://www.w3.org/Graphics/SVG/1.1/DTD/svg11.dtd">
<svg version="1.1" xmlns="http://www.w3.org/2000/svg" xmlns:xlink="http://www.w3.org/1999/xlink" x="0px" y="0px" viewBox="0 0 1000 1000" enable-background="new 0 0 1000 1000" xml:space="preserve">
<metadata> Svg Vector Icons : http://www.onlinewebfonts.com/icon </metadata>
<g><path d="M633.7,492.4L463.2,322.8l-27.7,27.9L592,506.4L448.4,649.6l27.8,27.8l171.2-170.9l-13.9-13.9L633.7,492.4z"/><path d="M500,10C229.4,10,10,229.4,10,500s219.4,490,490,490s490-219.4,490-490S770.6,10,500,10z M818.6,818.6c-41.4,41.4-89.6,73.9-143.2,96.6c-55.5,23.5-114.5,35.4-175.4,35.4c-60.9,0-119.9-11.9-175.4-35.4C271,892.5,222.8,860,181.4,818.6C140,777.2,107.5,729,84.8,675.4C61.3,619.9,49.4,560.8,49.4,500c0-60.9,11.9-119.9,35.4-175.4c22.7-53.7,55.2-101.8,96.6-143.2c41.4-41.4,89.6-73.9,143.2-96.6C380.1,61.3,439.2,49.4,500,49.4c60.9,0,119.9,11.9,175.4,35.4c53.7,22.7,101.8,55.2,143.2,96.6c41.4,41.4,73.9,89.6,96.6,143.2c23.5,55.5,35.4,114.5,35.4,175.4c0,60.8-11.9,119.9-35.4,175.4C892.5,729,860,777.2,818.6,818.6z"/></g>
</svg>