<svg xmlns="http://www.w3.org/2000/svg" xmlns:xlink="http://www.w3.org/1999/xlink" width="75" height="75" viewBox="0 0 75 75">
    <defs>
        <path id="prefix__a" d="M0.076 0L26.864 0 26.864 26.748 0.076 26.748z"/>
        <path id="prefix__c" d="M0 0.096L21.996 0.096 21.996 22.797 0 22.797z"/>
        <path id="prefix__e" d="M0.216 0.267L19.986 0.267 19.986 20 0.216 20z"/>
    </defs>
    <g fill="none" fill-rule="evenodd">
        <path fill="#946F5C" d="M61.797 65.096c-6.178-.009-11.263-5.248-11.239-11.58.024-6.357 5.085-11.523 11.296-11.531 6.19-.008 11.323 5.22 11.306 11.518-.019 6.446-5.072 11.602-11.363 11.593M48.21 51.526c-5.92.18-10.644-2.185-13.84-7.252-5.229-8.29-1.999-19.007 6.809-23.032 1.958-.896 4.029-1.35 5.193-1.329 8.669-.003 15.183 5.757 16.315 13.552.289 1.99.193 3.962-.242 5.926-.111.502-.3.692-.825.71-4.367.157-7.867 2.041-10.458 5.64-1.088 1.51-1.835 3.197-2.156 5.053-.088.508-.273.715-.796.732m19.713-9.868c-1.145-.645-2.445-1.001-3.74-1.517.12-.64.29-1.321.371-2.015.643-5.503-.766-10.383-4.496-14.426-4.468-4.843-10.026-6.597-16.365-5.273-7.082 1.48-12.37 7.45-13.492 14.61-1.05 6.695 2.118 14.007 7.77 17.607 3.11 1.982 6.481 2.945 10.147 2.783.43-.02.583.115.604.559.036.72.082 1.448.223 2.153 1.639 8.212 9.932 12.964 17.566 9.949 5.052-1.995 7.994-5.91 8.435-11.413.464-5.802-2.025-10.203-7.023-13.017"/>
        <g transform="translate(4)">
            <mask id="prefix__b" fill="#fff">
                <use xlink:href="#prefix__a"/>
            </mask>
            <path fill="#946F5C" d="M13.465 1.901c6.35.002 11.526 5.183 11.502 11.514-.025 6.323-5.174 11.45-11.497 11.447-6.349-.003-11.57-5.22-11.52-11.513C1.998 7.026 7.154 1.9 13.464 1.901m.039 24.847c7.421-.027 13.388-6.02 13.36-13.416C26.834 5.96 20.766-.05 13.4.001 6.029.05.041 6.073.076 13.4c.036 7.42 6.025 13.373 13.428 13.347" mask="url(#prefix__b)"/>
        </g>
        <g transform="translate(0 36)">
            <mask id="prefix__d" fill="#fff">
                <use xlink:href="#prefix__c"/>
            </mask>
            <path fill="#946F5C" d="M11.025 20.877c-5.068.01-9.172-4.205-9.177-9.423-.004-5.224 4.092-9.448 9.16-9.446 5.052 0 9.173 4.26 9.155 9.461-.02 5.187-4.11 9.399-9.138 9.408M11.047.096C4.967.092.02 5.159 0 11.412c-.02 6.243 4.92 11.363 10.986 11.385 6.05.022 11.01-5.093 11.01-11.354C21.996 5.217 17.058.1 11.047.096" mask="url(#prefix__d)"/>
        </g>
        <g transform="translate(21 55)">
            <mask id="prefix__f" fill="#fff">
                <use xlink:href="#prefix__e"/>
            </mask>
            <path fill="#946F5C" d="M10.064 18.071c-4.364-.012-7.914-3.589-7.902-7.96.012-4.38 3.56-7.919 7.941-7.918 4.39 0 7.976 3.605 7.953 7.994-.024 4.35-3.618 7.896-7.992 7.884M10.122.267C4.663.26.212 4.7.216 10.147c.005 5.409 4.442 9.84 9.863 9.853 5.446.012 9.916-4.447 9.907-9.88-.01-5.415-4.446-9.848-9.864-9.853" mask="url(#prefix__f)"/>
        </g>
        <path fill="#946F5C" d="M65.523 3.87c4.182.027 7.626 3.528 7.596 7.72-.03 4.13-3.586 7.62-7.693 7.549-4.205-.074-7.587-3.514-7.552-7.68.035-4.167 3.512-7.616 7.65-7.59M65.514 21c5.26-.02 9.506-4.285 9.485-9.53-.021-5.208-4.282-9.456-9.497-9.469-5.246-.013-9.508 4.253-9.503 9.513.005 5.272 4.253 9.507 9.515 9.487M59.908 46c-3.188.09-5.816 2.724-5.908 6.07.008.392.187.815.784.914.552.092.94-.223 1.075-.84.133-.605.179-1.25.426-1.805.711-1.595 2.029-2.338 3.734-2.48.678-.056 1.025-.46.977-1.025-.045-.527-.468-.85-1.088-.833M10.702 43.005c-2.584.179-4.659 2.318-4.702 4.849-.011.655.283 1.055.833 1.133.584.083.984-.246 1.118-.922.064-.325.087-.666.197-.975.461-1.304 1.414-1.956 2.775-2.095.755-.077 1.156-.56 1.064-1.156-.087-.568-.572-.883-1.285-.834"/>
        <path fill="#946F5C" d="M61.828 11.993c.51.063.913-.289 1.036-.906.314-1.57.675-1.93 2.275-2.236.56-.108.878-.424.86-1.002-.015-.52-.469-.86-1.075-.849-2.06.041-3.879 1.843-3.924 3.887-.013.608.312 1.042.828 1.106"/>
    </g>
</svg>
