<svg xmlns="http://www.w3.org/2000/svg" xmlns:xlink="http://www.w3.org/1999/xlink" width="76" height="76" viewBox="0 0 76 76">
    <defs>
        <path id="a" d="M0 .094h75.412V75.46H0z"/>
    </defs>
    <g fill="none" fill-rule="evenodd">
        <g>
            <mask id="b" fill="#fff">
                <use xlink:href="#a"/>
            </mask>
            <path fill="#946F5C" d="M52.548 66.133c.204-.528.301-1.154.659-1.54.166-.18.909-.017 1.27.194 3.181 1.863 6.627 1.528 9.145-.941 2.622-2.572 3.016-6.062 1.103-9.322-.21-.359-.357-.984-.182-1.276.178-.296.795-.466 1.216-.462 3.686.044 6.534-2.024 7.464-5.48.935-3.474-.46-6.689-3.673-8.461-.084-.046-.17-.086-.252-.136-.893-.54-.91-1.302-.042-1.844.162-.1.341-.173.508-.267 3.029-1.698 4.381-4.996 3.446-8.4-.927-3.37-3.814-5.493-7.309-5.443-.476.006-1.14-.17-1.378-.502-.186-.258.045-.956.28-1.346.993-1.658 1.386-3.419.991-5.302-1.085-5.17-6.734-7.58-11.274-4.863-.366.218-1.029.411-1.28.233-.321-.226-.428-.831-.51-1.294-.12-.683-.056-1.402-.21-2.074-.667-2.903-3.16-5.093-6.17-5.487-3.274-.429-5.957.925-7.54 3.731-.237.42-.685.866-1.12.978-.253.065-.79-.444-.998-.809-1.837-3.236-4.987-4.642-8.471-3.727-3.513.924-5.57 3.736-5.54 7.486.004.416-.195.99-.502 1.201-.247.17-.863.012-1.205-.188-3.26-1.899-6.677-1.564-9.215.949-2.585 2.56-2.982 6.055-1.095 9.244.216.365.41 1.016.231 1.271-.222.319-.842.512-1.286.504-3.586-.057-6.468 2.031-7.405 5.436-.946 3.441.421 6.715 3.528 8.444.195.108.405.197.583.327.654.479.64 1.172-.033 1.641-.207.145-.449.24-.67.367-2.452 1.413-3.714 3.548-3.678 6.35.037 2.837 1.257 5.084 3.757 6.547 1.274.746 2.681.945 4.15.892 1.108-.04 1.504.656.97 1.606-.077.138-.174.266-.255.402-1.8 3.006-1.315 6.571 1.232 9.069 2.473 2.425 5.975 2.812 8.98 1.05.416-.245 1.123-.47 1.44-.28.325.192.466.91.46 1.394-.04 3.468 2.109 6.332 5.501 7.243 3.415.916 6.692-.473 8.413-3.5.25-.442.748-.967 1.178-1.01.325-.034.83.575 1.071 1.002 1.7 3.006 4.938 4.403 8.313 3.53 3.388-.874 5.582-3.652 5.404-7.137M67.07 54.686c3.376 7.815-4.699 15.77-12.43 12.421-.591 4.13-2.92 6.873-6.92 7.962-3.997 1.09-7.354-.127-10.001-3.474-2.592 3.281-5.953 4.578-9.984 3.485-4.003-1.086-6.377-3.787-6.95-8.014-3.972 1.56-7.488.92-10.405-1.994-2.915-2.912-3.578-6.403-2.003-10.365-4.156-.608-6.9-2.92-7.988-6.917-1.094-4.014.136-7.37 3.455-10.012-3.292-2.618-4.55-5.966-3.463-9.98 1.072-3.969 3.753-6.302 7.976-6.936-1.536-3.887-.937-7.418 1.994-10.355 2.912-2.918 6.416-3.591 10.412-2.024.603-4.173 2.93-6.913 6.933-8.002 4-1.088 7.353.133 9.996 3.474C40.288.678 43.645-.617 47.678.471c4.015 1.084 6.359 3.807 6.96 8 4.196-1.603 7.813-.804 10.785 2.41 2.542 2.747 3.009 5.896 1.622 9.965 4.138.598 6.884 2.912 7.976 6.903 1.097 4.011-.13 7.371-3.45 10.024 3.294 2.616 4.542 5.97 3.46 9.98-1.07 3.968-3.753 6.303-7.96 6.933" mask="url(#b)"/>
        </g>
        <path fill="#946F5C" d="M50.015 35.318c-.011-3.335-1.763-5.756-4.439-6.65-2.637-.882-5.312-.048-7.113 2.22-.156.196-.286.414-.457.597-.507.538-1.04.548-1.55.009-.215-.227-.375-.503-.578-.742-1.695-1.997-3.85-2.857-6.437-2.224-2.583.632-4.268 2.284-4.84 4.871-.585 2.651.373 4.988 1.798 7.154 2.627 3.99 6.364 6.813 10.405 9.286.219.134.683.104.915-.036 3.335-2.027 6.425-4.353 8.93-7.35 1.863-2.23 3.278-4.665 3.366-7.135m-12.836-5.842c1.423-1.54 2.983-2.561 4.943-2.88 5.746-.935 10.712 4.037 9.682 9.688-.579 3.176-2.242 5.8-4.388 8.153-2.668 2.927-5.793 5.316-9.266 7.25-.424.237-1.18.354-1.559.142-4.536-2.543-8.6-5.649-11.561-9.953-1.477-2.147-2.502-4.475-2.49-7.138.015-3.377 2.069-6.366 5.269-7.663 3.102-1.257 6.432-.564 8.93 1.863.135.13.24.291.44.538"/>
    </g>
</svg>
