<svg xmlns="http://www.w3.org/2000/svg" xmlns:xlink="http://www.w3.org/1999/xlink" width="76" height="77" viewBox="0 0 76 77">
    <defs>
        <path id="a" d="M0 0h75.857v76.18H0z"/>
    </defs>
    <g fill="none" fill-rule="evenodd">
        <mask id="b" fill="#fff">
            <use xlink:href="#a"/>
        </mask>
        <path fill="#946F5C" d="M53.688 53.901c.07.23.096.375.157.504 1.523 3.202 2.25 6.532 1.693 10.09-.043.277.157.687.375.898 3.79 3.665 8.323 5.418 13.599 5.247.54-.018.8-.181.819-.78.163-5.265-1.505-9.837-5.16-13.642-.269-.28-.852-.436-1.252-.382-2.337.315-4.616.085-6.842-.63-1.114-.358-2.188-.838-3.39-1.305m-.08-31.664c.164.023.2.04.225.03.118-.047.234-.097.348-.152 3.13-1.521 6.387-2.263 9.887-1.76.38.055.933-.21 1.216-.506 3.522-3.69 5.12-8.122 5.058-13.205-.01-.915-.355-1.116-1.186-1.127-4.587-.064-8.606 1.424-12.183 4.255-1.05.83-1.823 1.676-1.315 3.129.081.231.033.509.04.766.095 3.024-.74 5.828-2.09 8.57m-31.502-.192c.006.024-.002-.076-.042-.159-1.557-3.224-2.31-6.58-1.743-10.173.042-.261-.103-.646-.296-.835-3.819-3.744-8.408-5.516-13.757-5.326-.523.02-.721.23-.739.758-.176 5.266 1.495 9.838 5.144 13.649.27.281.825.39 1.252.402 1.308.04 2.659-.212 3.922.027 2.115.399 4.175 1.089 6.259 1.657m.222 31.752c-.387.163-.558.227-.722.307-3.102 1.502-6.334 2.216-9.797 1.731-.384-.054-.94.197-1.223.492-3.549 3.714-5.163 8.174-5.064 13.294.016.796.29 1.032 1.066 1.047 4.766.089 8.92-1.473 12.575-4.494.871-.72 1.507-1.451 1.06-2.678-.106-.288-.052-.636-.062-.957-.1-3.024.731-5.829 2.167-8.742m6.359-5.006a20.888 20.888 0 0 0-5.604 8.031c-2.444 6.177-.632 12.318 5.525 16.997 5.953-5.902 7.076-17.45.079-25.028m18.558-.08c-7.12 7.728-5.866 19.292.028 25.093 2.856-1.892 5.611-5.714 6.24-8.977 1.278-6.632-1.885-11.56-6.268-16.116m1.354-1.323c3.013 3.335 6.591 5.578 10.956 6.452 5.568 1.113 10.924-2.083 13.944-6.429-6.417-6.3-17.823-6.726-24.9-.023m-46.306.11c3.156 3.84 6.838 6.71 12.008 6.537 5.294-.177 9.451-2.819 12.98-6.62-6.903-6.583-18.273-6.43-24.988.083M28.54 2.336c-3.795 3.148-6.674 6.84-6.499 12.058.179 5.338 2.867 9.483 6.654 13.058 7.123-7.924 5.665-19.374-.155-25.116m18.749-.04c-6.77 6.957-6.373 18.79-.085 25.078 2.608-2.334 4.51-5.15 5.726-8.423.69-1.856 1.01-3.783.852-5.767-.372-4.673-3.035-7.979-6.493-10.888m-20.037 26.5c-2.446-2.787-5.43-4.75-8.938-5.938-6.63-2.243-12.41 1.045-15.967 5.88 6.55 6.563 18.292 6.568 24.905.058m46.305-.107c-3-3.69-6.55-6.528-11.543-6.538-5.516-.01-9.797 2.729-13.463 6.644 7.085 6.668 18.47 6.293 25.006-.106M20.953 8.936c.651-1.139 1.152-2.397 1.98-3.379 1.464-1.733 3.087-3.339 4.722-4.915.942-.908 1.304-.834 2.158.101 4.243 4.65 6.087 10.116 5.485 16.383-.385 4.01-1.914 7.57-4.406 10.723l-.627.788 7.659 7.65 7.672-7.575c-.58-.803-1.275-1.683-1.884-2.62-5.156-7.932-4.178-18.514 2.33-25.374.861-.91 1.131-.94 2.095-.172 2.776 2.211 5.126 4.767 6.512 8.098.045.11.131.202.247.375.305-.25.571-.465.835-.684 4.35-3.607 9.34-5.119 14.964-4.61.935.084 1.364.48 1.452 1.421.525 5.657-1.024 10.67-4.604 15.066-.22.27-.452.531-.737.864 2.47 1.045 4.583 2.483 6.383 4.353.757.785 1.46 1.624 2.15 2.47.705.864.677 1.204-.13 1.957-4.98 4.641-10.856 6.439-17.572 5.435-3.645-.545-6.86-2.09-9.702-4.423a31.13 31.13 0 0 0-.679-.536c-.022-.018-.06-.016.032.005l-7.806 7.66 7.883 7.769c.752-.55 1.652-1.273 2.613-1.903 7.864-5.152 18.51-4.113 25.241 2.443.813.791.835 1.065.15 1.96-2.205 2.876-4.835 5.229-8.21 6.665-.084.036-.15.115-.272.211.205.25.4.493.599.732 3.575 4.314 5.136 9.269 4.705 14.849-.111 1.443-.292 1.605-1.754 1.731-5.562.48-10.471-1.109-14.755-4.67-.24-.199-.484-.392-.63-.51-1.135 1.69-2.127 3.416-3.37 4.937-1.048 1.281-2.362 2.352-3.608 3.46-.805.716-1.185.643-1.954-.151-7.01-7.24-7.603-18.767-1.377-26.86.312-.406.636-.803.866-1.093l-7.775-7.712-7.676 7.59c.2.252.45.571.704.888 6.446 8.074 6.052 19.431-.94 27.032-.96 1.043-1.193 1.064-2.31.178-2.834-2.248-5.172-4.892-6.583-8.405-.313.246-.56.428-.794.625-4.363 3.64-9.362 5.211-15.032 4.703-.992-.09-1.416-.503-1.502-1.477-.502-5.62 1.032-10.607 4.583-14.981.202-.25.415-.49.62-.737.019-.023.021-.06.018-.05-1.383-.865-2.881-1.578-4.101-2.618-1.602-1.366-2.999-2.975-4.454-4.508-.66-.695-.253-1.256.312-1.805 6.93-6.735 17.983-7.582 25.892-1.965.704.501 1.374 1.052 1.941 1.488l7.844-7.697-7.852-7.713c-.069.055-.339.268-.605.487-7.983 6.533-19.297 6.242-26.927-.691-1.245-1.131-1.262-1.301-.236-2.597 2.146-2.71 4.673-4.943 7.892-6.312.114-.048.21-.138.371-.246a21.114 21.114 0 0 1-4.065-6.518C3.775 11.599 3.43 8.563 3.667 5.448c.11-1.427.309-1.605 1.77-1.723 5.593-.452 10.535 1.13 14.822 4.755.17.146.342.291.521.426.044.032.12.022.173.03" mask="url(#b)"/>
    </g>
</svg>
