<svg xmlns="http://www.w3.org/2000/svg" xmlns:xlink="http://www.w3.org/1999/xlink" width="75" height="40" viewBox="0 0 75 40">
    <defs>
        <path id="prefix__a" d="M0 0L74.717 0 74.717 39.719 0 39.719z"/>
    </defs>
    <g fill="none" fill-rule="evenodd">
        <mask id="prefix__b" fill="#fff">
            <use xlink:href="#prefix__a"/>
        </mask>
        <path fill="#946F5C" d="M34.952 9.834c-.098 1.196-.805 2.351-2.045 3.341-1.163.93-2.558 1.595-4.503 2.145v-3.927c0-2.87-.947-4.185-3.617-5.022-3.2-1.003-6.346-.717-9.352.85-1.99 1.039-2.913 2.61-2.823 4.804.108 2.634.084 5.32.06 7.916-.01 1.093-.02 2.185-.02 3.277 0 .091-.009.183-.02.308a9.665 9.665 0 00-.006.057c-3.635-1.47-6.107-3.056-7.998-5.126-.936-1.026-1.7-2.092-2.27-3.17-1.48-2.802-1.123-5.439 1.06-7.837 1.726-1.898 3.967-3.29 6.85-4.256C13.634 2.066 16.848 1.5 19.95 1.5c3.122 0 6.134.572 9.078 1.714 1.83.71 3.288 1.688 4.456 2.99 1.06 1.179 1.567 2.434 1.468 3.63zm-8.006.415c-.06.346-.348.651-.832.882-1.54.738-3.226.831-5.008.28-.517-.16-1.024-.395-1.516-.62a36.3 36.3 0 00-.498-.227c-.402-.179-.706-.197-.933-.057-.215.134-.332.405-.349.805l-.004.1c-.025.6-.051 1.22.023 1.825.027.223.208.394.38.564.154.152.489.117.615.027.188-.134.358-.304.434-.517.09-.245.084-.515.08-.775l-.002-.135c4.341 1.048 4.473 1.055 7.607.04v.546c.003.884.005 1.719-.017 2.551-.022.052-.19.172-.3.192-3.774.673-7.007.246-9.885-1.306a7.163 7.163 0 01-1.95-1.576c-1.066-1.227-.964-2.47.297-3.597.963-.86 2.168-1.4 3.907-1.75.798-.16 1.556-.24 2.28-.24 1.136 0 2.187.198 3.177.597a6.215 6.215 0 012.066 1.373c.336.343.485.695.428 1.018zm2.858 9.953c-.038-.143-.186-.597-.713-.597-.514 0-.698.73-.703.841a40.276 40.276 0 00-.033 2.208c.002.434.003.868-.003 1.3-.004.22.001.397.005.544.015.531.015.531-.761.63l-.308.04c-.97.13-1.967.198-2.932.264l-.624.043c-.296.022-.594.017-.94.01-.124 0-.254-.003-.39-.004l-.001-.41V23.27c.001-.738.001-1.475.005-2.212.001-.366-.092-.635-.271-.778-.14-.113-.322-.146-.539-.097-.316.07-.646.553-.662.862-.044.881-.038 1.778-.032 2.645.002.314.004.628.003.942v.802c-.314-.04-.622-.077-.926-.114-.81-.098-1.575-.19-2.338-.33-.91-.166-1.863-.396-3.091-.747-.175-.05-.416-.319-.417-.432-.024-2.71-.016-5.466-.008-8.13v-1.212c2.785 2.36 6.162 3.32 10.606 3.021 4.32-.29 7.56-1.586 10.165-4.069v.01c.015.185.028.336.028.486l-.003 2.74c-.003 2.023-.007 4.117.008 6.176.003.515-.122.684-.584.788-1.09.244-2.161.518-3.295.81l-1.2.306-.001-3.553c0-.07.008-.783-.045-.982zm34.65 5.336c0-.088.008-.186.016-.287.027-.311.056-.663-.154-.898-.124-.139-.315-.213-.569-.221-.29-.008-.497.059-.635.205-.22.234-.186.594-.157.912.01.106.019.21.017.3a199.425 199.425 0 00-.014 3.882c.001.455.003.912.003 1.374l-5.953.494.002-2.112c.001-1.073.003-2.146.002-3.22l.002-.136c.005-.3.01-.639-.2-.856-.122-.126-.3-.191-.53-.194-.261.001-.44.062-.569.193-.22.221-.214.57-.208.879l.002.153-.005 1.03c-.007 1.237-.014 2.516.015 3.775.013.592-.076.775-.696.846-1.113.128-2.234.33-3.317.526-.475.086-.95.172-1.424.251-.125.021-.25.034-.405.049a19.67 19.67 0 00-.12.012v-1.382c0-.341.001-.683.003-1.024.006-.965.01-1.963-.03-2.944-.013-.318-.334-.812-.645-.882-.269-.06-.441.022-.54.1-.232.187-.282.525-.282.776-.001.427-.003.854-.006 1.28-.006 1.256-.012 2.553.016 3.83.01.486-.12.648-.61.751-1.116.237-2.242.508-3.332.77-.497.119-.994.238-1.492.355-.12.028-.242.047-.397.07l-.124.02v-.582l.006-4.527c.001-.292-.015-.622-.226-.829-.126-.125-.31-.184-.536-.183-.733.011-.733.653-.733 1.036l-.003 1.26c-.003 1.212-.008 2.464.023 3.697.01.455-.11.61-.563.724-1.317.331-2.615.682-3.99 1.052l-1.39.375v-3.067c0-.223.003-.446.006-.67.01-.584.019-1.188-.038-1.78-.023-.234-.058-.62-.25-.797-.075-.07-.707-.205-.951.142-.15.212-.23.457-.236.69-.028 1.004-.03 2.026-.031 3.014-.001.774-.002 1.547-.016 2.32-.004.218-.15.526-.222.558-1.508.38-3.012.723-4.605 1.085l-1.104.252v-4.071c0-.168.005-.336.01-.503.012-.417.024-.849-.038-1.269-.049-.324-.367-.778-.67-.845-.216-.047-.397-.015-.537.097-.18.145-.272.407-.271.778.003 1.323.004 2.645.004 3.968l.001 1.94s-1.786.125-2.9.125c-1.097 0-3.05-.125-3.05-.125v-.464l-.002-2.483c-.002-.972-.003-1.943-.002-2.915 0-.282.002-.943-.74-.947-.238.009-.408.062-.535.188-.2.199-.226.504-.225.748v5.614A25.433 25.433 0 0112.6 36.29c-.09-.036-.229-.355-.233-.594-.02-1.183-.017-2.387-.013-3.553l.003-1.245c0-.064.006-.13.012-.197.015-.185.039-.556-.01-.737-.092-.337-.192-.766-.681-.784-.681-.026-.79.9-.794 1.025a86.925 86.925 0 00-.034 3.435c.002.38.003.762.003 1.142v.812c-.18-.095-.356-.184-.527-.27-.484-.246-.942-.477-1.35-.755A76.422 76.422 0 016.59 32.86c-.376-.276-.752-.553-1.13-.825-.41-.296-.579-.667-.565-1.238.032-1.353.028-2.729.024-4.059l-.004-1.279v-.098c.003-.306.006-.652-.213-.87-.128-.127-.306-.185-.556-.187-.723.01-.72.617-.717 1.018v.507c-.005 1.234-.009 2.507-.073 3.78-.792-.959-1.564-2.075-1.62-3.374-.093-2.163-.074-4.29-.055-6.54.007-.824.014-1.652.015-2.488a.08.08 0 01.017.016C4.344 21 8.207 23.69 13.523 25.445c5.52 1.821 11.262 2.025 17.07.607a441.77 441.77 0 007.33-1.88c2.477-.65 5.04-1.322 7.57-1.937 8.225-1.999 15.616-2.86 22.59-2.633.234.008.467.027.712.047l.229.019V30.81h-4.56l.002-1.345c.003-1.29.006-2.623-.011-3.928zm8.71-5.594v11.224l-2.558-.193V19.72l2.558.223zm1.553-.351c.002-.695-.284-1.022-.956-1.093-5.766-.615-11.737-.535-17.746.236-6.026.773-12.004 2.293-17.134 3.656-.578.154-1.157.306-1.742.459l-.676.177c-.012-.072-.021-.127-.022-.182 0-1.197-.007-2.393-.014-3.59-.018-2.919-.036-5.937.05-8.9.061-2.07-.58-3.745-2.02-5.272-1.417-1.504-3.26-2.65-5.638-3.508-5.951-2.145-12.115-2.1-18.841.135-3.293 1.094-5.82 2.677-7.726 4.84-1.705 1.932-2.43 4-2.216 6.322l.008.078c.082.89.167 1.811.172 2.714.01 1.58.01 3.159.01 4.738-.001 1.794-.002 3.649.013 5.473.005.562.12 1.167.33 1.748.985 2.729 2.932 5.04 5.95 7.066 4.987 3.347 10.41 5.03 16.182 5.03 2.021 0 4.086-.207 6.19-.62 3.562-.7 7.132-1.662 10.584-2.592 1.102-.298 2.204-.594 3.307-.884 11.612-3.045 21.418-3.965 30.857-2.896.361.04.624-.017.803-.178.188-.168.275-.436.274-.842-.012-4.118-.012-8.194 0-12.115z" mask="url(#prefix__b)"/>
    </g>
</svg>
