<svg xmlns="http://www.w3.org/2000/svg" xmlns:xlink="http://www.w3.org/1999/xlink" width="77" height="78" viewBox="0 0 77 78">
    <defs>
        <path id="prefix__a" d="M0 0.101L76.526 0.101 76.526 76.937 0 76.937z"/>
    </defs>
    <g fill="none" fill-rule="evenodd">
        <g transform="translate(0 .287)">
            <mask id="prefix__b" fill="#fff">
                <use xlink:href="#prefix__a"/>
            </mask>
            <path fill="#946F5C" d="M33.909 2.11v1.147c0 5.18 0 10.358.002 15.537 0 .388.003.778.041 1.164.248 2.528 2.618 4.298 5.106 3.824 2.057-.392 3.517-2.061 3.534-4.267.045-5.6.02-11.199.017-16.798 0-.186-.055-.371-.094-.606H33.91zm19.325.09c-.143-.056-.231-.12-.32-.12-2.586-.012-5.171-.008-7.757-.03-.661-.005-.603.426-.603.85 0 5.464 0 10.927.006 16.391 0 .354.032.713.096 1.06.422 2.29 2.67 3.847 4.958 3.448 2.214-.386 3.648-2.135 3.656-4.558.02-5.399.008-10.797.005-16.196 0-.286-.027-.571-.041-.845zm-29.889-.146c-.042.326-.094.543-.094.76-.004 5.528-.023 11.056.008 16.583.015 2.52 1.896 4.432 4.286 4.478 2.426.047 4.382-1.852 4.405-4.45.05-5.528.008-11.057.032-16.584.003-.675-.275-.82-.87-.796-.87.035-1.745.009-2.618.009h-5.149zm-21.29.074c-.048.16-.098.25-.098.341-.003 5.756-.04 11.513.02 17.269.02 1.95 1.446 3.55 3.263 3.994 2.775.679 5.403-1.345 5.422-4.258.035-5.53.013-11.06.01-16.59 0-.246-.05-.492-.078-.756h-8.54zm63.918-.024c-.06.155-.104.214-.104.274-.004 5.82-.036 11.642.014 17.462.015 1.828 1.49 3.454 3.267 3.891 2.817.694 5.4-1.339 5.42-4.36.038-5.53.013-11.06.008-16.59 0-.212-.062-.424-.101-.677h-8.504zm-2.103.124c-.092-.059-.146-.123-.2-.123-2.65-.019-5.301-.044-7.95-.018-.177.002-.5.394-.5.606-.021 5.723-.052 11.447.022 17.17.025 1.916 1.527 3.487 3.374 3.89 2.795.611 5.287-1.418 5.304-4.398.032-5.497.011-10.994.008-16.49 0-.222-.04-.443-.058-.637zm-51.199-.17c-.037.345-.075.535-.075.725-.002 5.562-.005 11.123.007 16.685.001.415.061.843.176 1.241.593 2.054 2.618 3.4 4.666 3.128 2.22-.294 3.828-2.016 3.865-4.281.05-3.007.017-6.014.018-9.021 0-2.555.016-5.11-.024-7.664-.004-.273-.331-.774-.516-.778-2.676-.05-5.354-.035-8.117-.035zm52.268 20.87c-2.79 3.636-7.681 3.911-10.573.239-1.095.741-2.131 1.552-3.272 2.169-.556.301-.727.575-.726 1.162.013 15.83.016 31.659-.008 47.488 0 .834.272 1.018 1.054 1.014 6.215-.028 12.43-.015 18.645-.018.313 0 .626-.036.945-.056V25.77c-2.535.14-4.552-.746-6.065-2.843zM5.531 52.467v22.468c.364.019.65.046.936.046 13.662.003 27.324-.007 40.985.023.91.002 1.052-.32 1.048-1.123-.028-6.701-.016-13.403-.016-20.104 0-1.307-.001-1.309-1.318-1.309H5.53zm-.024-1.958h42.977v-1.175-10.39c0-4.08.01-8.159-.02-12.237-.003-.335-.241-.92-.452-.96-1.847-.355-3.286-1.302-4.368-2.817-3.962 3.862-6.548 3.864-10.775.02-1.3 1.776-3.017 2.802-5.26 2.814-2.269.013-3.97-1.106-5.362-2.87-1.375 1.895-3.117 2.875-5.356 2.868-2.234-.007-3.917-1.104-5.288-2.883-1.527 2.182-3.602 3.018-6.096 2.909V50.51zM38.293.101H74.72c1.589 0 1.795.205 1.795 1.78.001 5.634-.023 11.269.011 16.902.016 2.591-.873 4.655-3.071 6.126-.265.177-.427.689-.431 1.048-.034 2.979-.02 5.958-.02 8.937v40.215c0 1.636-.193 1.828-1.846 1.828H5.396c-1.705 0-1.877-.174-1.877-1.894 0-16.222-.004-32.444.014-48.666 0-.799-.156-1.332-.888-1.827-1.716-1.162-2.6-2.9-2.617-4.957C-.018 13.54.004 7.483.014 1.43.015.356.358.102 1.672.102h36.621z" mask="url(#prefix__b)"/>
        </g>
        <path fill="#946F5C" d="M65.226 54.608h-8.759V65.92c2.79 0 5.499.016 8.206-.034.189-.003.52-.493.528-.764.05-1.647.025-3.295.025-4.942v-5.572zm-10.72 5.58c0-2.038-.006-4.076.003-6.114.005-1.191.249-1.447 1.409-1.45 3.267-.008 6.533-.007 9.8 0 1.139.002 1.44.296 1.442 1.437.01 4.108.009 8.216 0 12.324-.002 1.155-.293 1.453-1.427 1.456-3.267.01-6.535.01-9.801 0-1.165-.003-1.418-.267-1.423-1.443-.009-2.07-.002-4.14-.002-6.21zM60.795 45.362c1.228 0 2.455-.018 3.682.008.526.012.762-.145.756-.708-.025-2.066.05-4.136-.038-6.2-.105-2.468-2.042-4.256-4.423-4.228-2.365.029-4.278 1.863-4.365 4.309-.072 2.032-.006 4.07-.03 6.103-.007.552.197.736.736.724 1.227-.026 2.455-.008 3.682-.008m.101 1.895c-1.682.001-3.363.013-5.045-.003-1.088-.01-1.338-.278-1.341-1.415-.009-2.361-.023-4.722.002-7.082.04-3.602 2.65-6.339 6.138-6.473 3.355-.13 6.264 2.496 6.463 6.04.145 2.579.047 5.172.044 7.759 0 .789-.417 1.18-1.216 1.176-1.682-.008-3.364-.003-5.045-.002"/>
    </g>
</svg>
