<svg xmlns="http://www.w3.org/2000/svg" width="99" height="99" viewBox="0 0 99 99">
    <g fill="none" fill-rule="evenodd" opacity=".183">
        <path fill="#FFF" d="M50 98C22.981 98 1 76.019 1 49S22.981 0 50 0s49 21.981 49 49-21.981 49-49 49"/>
        <path fill="#000" d="M49.5 0C22.162 0 0 22.162 0 49.5S22.162 99 49.5 99 99 76.838 99 49.5 76.838 0 49.5 0m0 .656c26.933 0 48.844 21.91 48.844 48.844 0 26.933-21.91 48.844-48.844 48.844C22.567 98.344.656 76.434.656 49.5.656 22.567 22.566.656 49.5.656"/>
        <path fill="#FFF" d="M49.5 77C34.336 77 22 64.664 22 49.5S34.336 22 49.5 22 77 34.336 77 49.5 64.664 77 49.5 77"/>
        <path fill="#000" d="M49.5 22C34.312 22 22 34.312 22 49.5S34.312 77 49.5 77 77 64.688 77 49.5 64.688 22 49.5 22m0 .647c14.807 0 26.853 12.046 26.853 26.853 0 14.807-12.046 26.853-26.853 26.853-14.807 0-26.853-12.046-26.853-26.853 0-14.807 12.046-26.853 26.853-26.853"/>
        <path fill="#000" d="M39.517 44l2.367 9.247L47.792 44H51l-.098.441-1.076.088c-.208.013-.342.056-.401.133-.058.077-.127.32-.205.732l-1.8 9.212c-.078.4-.105.638-.078.715.026.076.137.126.332.15l1.057.088-.079.441h-4.284l.078-.441 1.096-.088c.208-.024.342-.074.4-.15.06-.077.128-.315.206-.715l1.937-9.865-6.338 9.847h-.822l-2.563-10.006-1.897 10.024c-.078.4-.105.638-.078.715.025.076.137.126.332.15l1.057.088-.079.441H34l.078-.441 1.096-.088c.183-.024.31-.074.38-.15.072-.077.148-.315.226-.715l1.8-9.212c.078-.411.105-.655.078-.732-.026-.077-.137-.12-.332-.133l-1.076-.088.098-.441h3.169zM63.982 52.274c-.105 1.466-.64 2.62-1.606 3.462C61.411 56.58 60.14 57 58.56 57c-1.727 0-3.085-.588-4.076-1.764C53.495 54.06 53 52.446 53 50.393v-.832c0-1.311.228-2.465.685-3.463.456-.998 1.108-1.764 1.957-2.298.848-.533 1.833-.8 2.955-.8 1.555 0 2.807.421 3.757 1.264.949.842 1.498 2.024 1.646 3.547h-2.775c-.068-.88-.31-1.519-.727-1.914-.416-.397-1.05-.595-1.9-.595-.926 0-1.618.336-2.078 1.006-.46.671-.695 1.711-.707 3.121v1.03c0 1.472.22 2.548.66 3.228.442.68 1.138 1.02 2.087 1.02.857 0 1.498-.198 1.92-.594.422-.396.665-1.01.726-1.839h2.776zM47.01 8.079L49.028 12.866 50.889 8.017 51.904 8 52 13.905 51.218 13.918 51.18 11.619 51.213 9.135 49.343 13.948 48.744 13.957 46.724 9.22 46.841 11.688 46.878 13.988 46.096 14 46 8.095zM55.973 12.299l1.932.387-.412-2.736-1.52 2.349zM58 13.316l-2.381-.477-.846 1.315-.773-.153L57.36 9l.654.132L59 15l-.769-.154-.231-1.53zM63.548 11.845l-1.66 4.053.696.303c.51.222.973.232 1.39.028.417-.204.75-.607.996-1.211l.124-.303c.24-.587.294-1.101.16-1.544-.135-.442-.446-.772-.935-.99l-.771-.336zM61 16.169L63.115 11l1.414.615c.437.19.781.458 1.035.802.254.345.397.74.43 1.186.031.447-.048.908-.24 1.385l-.136.33c-.2.488-.465.875-.798 1.163a2.06 2.06 0 01-1.127.504c-.419.05-.854-.022-1.306-.213L61 16.169zM71.056 18.49L69.033 17.084 67.946 18.834 70.295 20.467 69.965 21 67 18.939 70.067 14 73 16.039 72.669 16.572 70.352 14.96 69.364 16.551 71.386 17.957zM74.555 26L74 25.511 78.445 22 79 22.489zM78.775 31L78.296 30.364 80.505 25.396 76.478 27.95 76 27.314 81.225 24 81.703 24.636 79.482 29.622 83.526 27.057 84 27.686zM84.628 39L83.818 36.723 81.254 37.519 81 36.804 86.805 35 88 38.362 87.375 38.556 86.433 35.91 84.444 36.528 85.254 38.806zM86.023 42.168l.169 1.162c.054.376.194.66.419.853.225.194.5.267.822.22.352-.053.607-.198.765-.437.157-.239.208-.558.152-.958l-.167-1.158-2.16.318zm-.417 1.437l-.196-1.347-2.3.34-.11-.76L88.686 41l.275 1.899c.093.645.02 1.163-.222 1.555-.241.39-.64.627-1.197.708a1.532 1.532 0 01-.968-.153 1.74 1.74 0 01-.706-.718l-2.218 1.702-.048.007-.117-.811 2.12-1.584zM86.318 49.619l-.08 1.932 2.79-.86-2.71-1.072zm-.724 2.13l.1-2.381-1.517-.596.032-.772L90 50.4l-.027.655L84 53l.032-.769 1.562-.482zM82 59.558L82.19 58.772 87.457 56.898 82.912 55.786 83.103 55 89 56.442 88.81 57.229 83.521 59.105 88.086 60.222 87.897 61zM81.093 66.977c-.536-.319-.877-.716-1.02-1.192-.142-.476-.077-.994.197-1.554.297-.607.763-.991 1.397-1.153.634-.162 1.332-.072 2.094.27l.516.232c.5.224.896.506 1.191.846.295.34.468.713.517 1.117.05.403-.026.81-.227 1.223-.268.546-.641.912-1.121 1.098-.48.187-1.015.18-1.604-.017l.333-.681c.458.133.831.145 1.12.035.289-.11.52-.342.692-.695.213-.433.211-.847-.003-1.243-.214-.396-.63-.733-1.248-1.01l-.52-.233c-.583-.262-1.104-.354-1.563-.275-.458.079-.79.327-.995.746-.184.376-.237.705-.157.986.08.281.324.554.735.819l-.334.68zM79.467 72.002L80.956 70.064 79.25 68.933 77.52 71.185 77 70.84 79.183 68 84 71.19 81.841 74 81.321 73.656 83.028 71.435 81.476 70.408 79.987 72.346zM54.043 89.667L51.874 85.232 50.367 89.931 49.406 90 49 84.402 49.742 84.349 49.899 86.529 50 88.887 51.517 84.221 52.085 84.18 54.254 88.57 54.011 86.234 53.853 84.053 54.594 84 55 89.599zM44.159 85.565l-1.932-.278.579 2.755 1.353-2.477zm-2.065-.913l2.38.343.753-1.386.773.11L42.998 89l-.656-.095L41 83l.769.11.325 1.542zM36.645 87.18l1.458-4.169-.733-.26c-.537-.19-1.014-.169-1.43.061-.417.23-.734.657-.951 1.278l-.109.31c-.211.605-.234 1.124-.07 1.559.166.434.506.745 1.022.934l.813.288zM39 82.686L37.141 88l-1.492-.527a2.55 2.55 0 01-1.112-.739 2.206 2.206 0 01-.513-1.162c-.06-.446-.006-.913.162-1.403l.12-.34c.174-.501.424-.906.748-1.216.325-.309.701-.5 1.128-.577.428-.076.88-.032 1.355.131l1.463.518zM28.855 81.577L31.018 82.853 32.033 81.035 29.521 79.553 29.829 79 33 80.871 30.136 86 27 84.15 27.309 83.597 29.786 85.059 30.709 83.406 28.546 82.13zM25.506 74L26 74.55 22.493 79 22 78.45zM19.99 69L20.509 69.598 18.635 74.592 22.48 71.867 23 72.464 18.01 76 17.49 75.403 19.376 70.39 15.514 73.128 15 72.536zM14.282 62L15.227 64.164 17.703 63.249 18 63.928 12.395 66 11 62.806 11.604 62.583 12.703 65.096 14.623 64.387 13.678 62.224zM12.007 58.746l-.235-1.083c-.075-.35-.23-.61-.463-.78-.233-.168-.507-.22-.822-.158-.343.07-.585.221-.726.455-.14.234-.171.538-.093.91l.233 1.08 2.106-.424zm.326-1.377l.272 1.257 2.241-.451.154.709L9.457 60l-.383-1.77c-.13-.603-.088-1.095.126-1.477.214-.382.593-.628 1.135-.737.345-.07.666-.04.961.088.295.129.541.34.737.636l2.081-1.73.046-.01.164.757-1.991 1.612zM11.773 50.507l-.04-1.933-2.759 1.02 2.799.913zm.597-2.167l.048 2.381 1.566.506L14 52l-5.986-2.06L8 49.284 13.898 47l.016.769-1.544.571zM15 40.946L14.854 41.645 9.557 43.571 14.298 44.301 14.152 45 8 44.053 8.146 43.354 13.465 41.425 8.703 40.692 8.848 40zM15.802 32.878c.553.291.917.676 1.09 1.151.172.476.139 1.007-.098 1.592-.257.636-.695 1.055-1.314 1.257-.62.203-1.318.153-2.097-.15l-.528-.204c-.51-.199-.922-.462-1.237-.79a2.134 2.134 0 01-.584-1.105 2.233 2.233 0 01.149-1.259c.23-.57.578-.965 1.043-1.184.465-.219.996-.245 1.594-.077l-.288.712c-.463-.108-.835-.098-1.115.031-.279.13-.493.379-.643.748-.183.453-.156.875.083 1.265.237.39.672.708 1.303.952l.532.207c.595.23 1.119.293 1.57.186.45-.107.764-.38.94-.818.16-.394.191-.731.094-1.013-.097-.28-.358-.544-.782-.788l.288-.713zM17.465 27.912L16.107 29.986 17.883 31.047 19.46 28.637 20 28.96 18.01 32 13 29.007 14.968 26 15.509 26.322 13.953 28.7 15.567 29.663 16.925 27.589z"/>
    </g>
</svg>
