<?xml version="1.0" encoding="UTF-8"?>
<svg width="41px" height="38px" viewBox="0 0 41 38" version="1.1" xmlns="http://www.w3.org/2000/svg" xmlns:xlink="http://www.w3.org/1999/xlink">
    <!-- Generator: Sketch 63.1 (92452) - https://sketch.com -->
    <title>01-Electrons/icon-cart-2</title>
    <desc>Created with Sketch.</desc>
    <g id="01-Electrons/icon-cart-2" stroke="none" stroke-width="1" fill="none" fill-rule="evenodd">
        <path d="M20.2625044,3.48165941e-13 C38.7306774,3.48165941e-13 40.3260426,6.17463006 40.4035002,6.43242606 C40.4575792,6.61252764 40.626156,7.04217565 40.55627,7.32288714 C40.5639044,7.36575763 40.567468,7.41043321 40.567468,7.45562671 L40.5250564,11.9662252 C40.5250564,12.3687196 40.3219084,12.8702932 40.0424908,13.1593336 L39.9855866,13.2163805 C39.8211274,13.3779605 39.3455693,13.8233313 38.5480546,14.4097413 C38.5482199,14.4123847 38.54826,14.417666 38.54826,14.4230805 L38.54826,29.1584386 C38.54826,29.5507162 38.362932,30.0516958 38.1076308,30.3489334 C37.8725256,30.623599 32.2133688,37.0656479 20.2625638,37.0656479 C8.31152132,37.0656479 2.65260207,30.623599 2.41749686,30.3489334 C2.16219566,30.0516958 1.97686766,29.5507162 1.97686766,29.1584386 L1.97686766,14.4230805 L1.97663032,14.409444 C1.04403197,13.7236684 0.551832504,13.2308433 0.482684405,13.1593336 C0.203029202,12.869818 2.06057393e-13,12.3682444 2.06057393e-13,11.9662252 L2.06057393e-13,7.41321511 C2.06057393e-13,7.30765731 0.0150258942,7.20936849 0.0438190488,7.12055329 C0.0324168387,6.87958426 0.164095967,6.49334571 0.207044642,6.38656926 C0.311351043,6.12770406 2.82551547,3.48165941e-13 20.2625044,3.48165941e-13 Z M2.86810527,15.0434541 L2.96528367,29.1584386 C2.96528367,29.3127598 3.06733287,29.588851 3.16771887,29.7056314 L3.18592473,29.7260887 C3.54549201,30.1246117 9.11852633,36.0772319 20.2625638,36.0772319 C31.7344859,36.0772319 37.3029984,29.7693082 37.3576464,29.7056314 C37.4575572,29.588851 37.559844,29.3127598 37.559844,29.1584386 L37.5604086,15.0916599 C34.6487692,16.9826198 29.1375012,19.5885174 20.7819532,19.6928322 L20.2625638,19.6960185 L20.2625638,19.6960185 C12.1457326,19.696066 6.6437678,17.3394079 3.54179879,15.454205 C3.26243915,15.2907716 3.03740008,15.1513445 2.86810527,15.0434541 Z M15.3197337,13.0782701 L15.3197493,18.4437132 C16.5508055,18.6132823 17.8633373,18.7280863 19.2517135,18.7661292 C19.3432857,18.7692131 19.434849,18.7712836 19.5267791,18.7730306 L19.2517135,18.7661292 C19.4206399,18.7707579 19.590689,18.7742503 19.7618509,18.7765667 L19.5267791,18.7730306 C19.7694745,18.7776425 20.0147258,18.7799992 20.2625282,18.7799992 L20.2625044,13.3437349 L20.2625044,13.3437349 C18.4904906,13.3437349 16.8436802,13.2467618 15.3197337,13.0782701 Z M21.250334,13.3335876 L21.2504349,18.7667511 C23.02602,18.719209 24.6777779,18.5460674 26.1939393,18.2932551 L26.1946287,12.9567789 C24.6776915,13.1618997 23.030451,13.2968275 21.250334,13.3335876 Z M10.3775296,12.2109747 L10.3775931,17.3935701 C11.5658783,17.739374 12.8874511,18.0525681 14.3321403,18.2934215 L14.3314601,12.9569138 C12.8978351,12.7630931 11.5805816,12.506576 10.3775296,12.2109747 Z M27.1817445,12.8107284 L27.1816679,18.1139701 C28.2150258,17.9110156 29.1787208,17.673032 30.0685409,17.4164558 C30.4344062,17.3074196 30.7903956,17.1939605 31.1353091,17.0771027 L31.1363312,11.9526122 C29.9435543,12.2832689 28.6261903,12.5783481 27.1817445,12.8107284 Z M5.92983753,10.779923 L5.93,15.6529536 L6.12040674,15.7469389 C7.0293386,16.1896879 8.11966655,16.6529625 9.38859441,17.0803684 L9.38878756,11.9526122 C8.08892104,11.5922679 6.93701309,11.1896709 5.92983753,10.779923 Z M32.1245879,11.6622528 L32.1241984,16.7220272 C33.4674276,16.2118741 34.6198266,15.6580273 35.5839867,15.1238884 L35.5834384,10.3559487 C34.6002559,10.800465 33.4486723,11.2507554 32.1245879,11.6622528 Z M0.987593504,8.08246533 L0.98841601,11.9662252 C0.98841601,12.1090228 1.09367281,12.3693136 1.19310841,12.4720756 L1.21279894,12.4917725 C1.3809262,12.6579231 2.62008273,13.8449526 4.94176712,15.1335938 L4.94265896,10.3563952 C2.93153023,9.44722522 1.62485686,8.56214666 0.987593504,8.08246533 Z M36.5724879,9.88397519 L36.5720255,14.5453945 C38.3980552,13.4155875 39.3087361,12.4961297 39.3320668,12.4720756 C39.4315024,12.3693136 39.5366404,12.1090228 39.5366404,11.9662252 L39.5375032,8.08246533 C39.0115987,8.47831703 38.0298311,9.15025208 36.5724879,9.88397519 Z M20.2625044,0.98853481 C3.75191788,0.98853481 1.18845145,6.60326046 1.13059585,6.73940526 C1.12607195,6.75237218 1.12386836,6.76826535 1.12364602,6.78572547 C1.14521954,6.79776183 1.16648024,6.81295992 1.18752481,6.82919431 C1.22983092,6.8616781 3.27736832,8.78312988 7.6621141,10.3510954 C10.5072404,11.3508896 14.3041933,12.2156503 19.0797702,12.3399036 C19.4671505,12.35023 19.8614318,12.3552952 20.2625282,12.3552952 C20.6615553,12.3552952 21.0538375,12.3502827 21.4394194,12.3405596 C29.8332617,12.1224233 35.1351183,9.61312605 37.5852131,8.10580771 C38.7471356,7.37803927 39.315694,6.84629759 39.337888,6.82919431 C39.4031346,6.76243123 39.4494815,6.69628086 39.4392006,6.65161206 C39.3542989,6.3790918 37.4272442,0.98853481 20.2625044,0.98853481 Z" id="Combined-Shape" fill="#3D3E49"></path>
    </g>
</svg>