<?xml version="1.0" encoding="UTF-8"?>
<svg width="60px" height="60px" viewBox="0 0 60 60" version="1.1" xmlns="http://www.w3.org/2000/svg" xmlns:xlink="http://www.w3.org/1999/xlink">
    <!-- Generator: Sketch 62 (91390) - https://sketch.com -->
    <title>01-Electrons/Icons-Nav1</title>
    <desc>Created with Sketch.</desc>
    <g id="LOT-1" stroke="none" stroke-width="1" fill="none" fill-rule="evenodd">
        <g id="01-HOME" transform="translate(-201.000000, -4945.000000)">
            <g id="Group-10" transform="translate(202.000000, 4442.000000)">
                <g id="01-Electrons/Icons-Nav1" transform="translate(0.000000, 504.000000)">
                    <circle id="Oval" stroke="#F3EEE7" stroke-width="1" cx="29" cy="29" r="29"></circle>
                    <g id="01-Electrons/icon-slider" transform="translate(27.996550, 29.430336) scale(-1, 1) translate(-27.996550, -29.430336) translate(23.015076, 20.000000)" fill="#000000" fill-rule="nonzero">
                        <path d="M9.77294335,8.98795179 L0.908676006,0.155962494 C0.699966024,-0.0519874981 0.365242468,-0.0519874981 0.156532486,0.155962494 C-0.0521774955,0.363912486 -0.0521774955,0.697417191 0.156532486,0.905367183 L8.64275911,9.36069234 L0.156532486,17.8160175 C-0.0521774955,18.0239675 -0.0521774955,18.3574722 0.156532486,18.5654222 C0.258918515,18.6674354 0.396745862,18.7223656 0.530635284,18.7223656 C0.664524707,18.7223656 0.802352053,18.671359 0.904738082,18.5654222 L9.76900543,9.73343289 C9.97771541,9.52940648 9.97771541,9.19197819 9.77294335,8.98795179 Z" id="Path"></path>
                    </g>
                </g>
            </g>
        </g>
    </g>
</svg>